<svg xmlns="http://www.w3.org/2000/svg" width="64" height="64" viewBox="0 0 64 64" fill="none"><g clip-path="url(#clip0_12_157)"><path fill-rule="evenodd" clip-rule="evenodd" d="M6.7394 45.6749C6.72751 45.592 6.69938 45.5123 6.65662 45.4404C6.61387 45.3684 6.55733 45.3057 6.49025 45.2556C6.42317 45.2056 6.34687 45.1693 6.26573 45.1488C6.18458 45.1283 6.10019 45.124 6.0174 45.1362C5.85019 45.1606 5.69952 45.2505 5.59854 45.386C5.49755 45.5215 5.45452 45.6915 5.4789 45.8587C5.491 45.9415 5.5193 46.0211 5.56218 46.0929C5.60507 46.1647 5.6617 46.2274 5.72883 46.2773C5.79595 46.3273 5.87227 46.3635 5.9534 46.3839C6.03453 46.4043 6.11889 46.4085 6.20165 46.3962C6.28434 46.3842 6.36384 46.356 6.43563 46.3132C6.50741 46.2705 6.57006 46.214 6.62 46.147C6.66994 46.08 6.70619 46.0038 6.72668 45.9228C6.74716 45.8418 6.75149 45.7575 6.7394 45.6749ZM17.0198 58.9527C17.3345 59.5089 17.1334 60.2327 16.5774 60.5475L13.3928 62.35C12.8363 62.665 12.1112 62.4642 11.7962 61.9076L2.43327 45.3636C2.1184 44.8072 2.31927 44.0826 2.87565 43.7677L6.06027 41.9652C6.6149 41.6514 7.34252 41.8521 7.6569 42.4076L17.0198 58.9527ZM27.9576 37.9376L28.8824 38.2714L28.6074 37.3275C28.5966 37.2907 28.5864 37.2537 28.5772 37.2166C28.5455 37.0881 28.566 36.9523 28.6342 36.8388C28.7023 36.7254 28.8126 36.6435 28.9409 36.6111C29.2077 36.5447 29.4808 36.7075 29.5474 36.9745C29.8104 38.0287 30.5363 38.7761 31.5217 39.19C33.0894 39.8487 35.4045 39.6952 36.5742 38.3432C36.9824 37.8714 37.1224 37.309 37.0473 36.6932C36.968 36.0429 36.7013 35.5237 36.1985 35.096C35.4223 34.4355 34.2273 34.1374 33.2457 33.9761C31.2312 33.6454 29.1173 32.7544 29.0047 30.4369C28.9093 28.4731 30.3614 27.0614 32.199 26.645C32.2676 26.6295 32.3365 26.6152 32.4057 26.6025L32.8149 26.527V25.1426C32.8149 24.8665 33.038 24.6426 33.3144 24.6426C33.5909 24.6426 33.8144 24.8661 33.8144 25.1426V26.5239L34.2296 26.5952C35.8139 26.8677 37.0519 27.8206 37.6772 29.3102C37.7282 29.4325 37.7287 29.5701 37.6786 29.6927C37.6284 29.8154 37.5317 29.9132 37.4096 29.9647C37.2875 30.0156 37.1501 30.016 37.0276 29.9659C36.9051 29.9158 36.8074 29.8192 36.7559 29.6974C36.1672 28.2947 34.8803 27.5186 33.38 27.514H33.3624L33.3449 27.5151C33.3266 27.5164 33.3079 27.516 33.2898 27.5155L33.275 27.515L33.2603 27.5154C32.9778 27.5226 32.6956 27.557 32.42 27.6196C31.0706 27.926 29.9312 28.8941 30.0037 30.388C30.0298 30.9269 30.1735 31.3506 30.5453 31.7579C31.2323 32.5104 32.4412 32.8306 33.4079 32.9892C34.332 33.1409 35.2264 33.3484 36.0593 33.7959C37.1772 34.3964 37.884 35.2911 38.0399 36.5729C38.1485 37.4662 37.9237 38.3124 37.3313 38.9975C37.0948 39.2711 36.8092 39.503 36.5048 39.6972L35.4659 40.3602L36.6731 40.6085C36.9074 40.6566 37.1421 40.7026 37.3774 40.7456L37.3875 40.7474C37.4061 40.7504 37.4253 40.756 37.4433 40.7617C38.6227 41.1444 39.5775 42.046 39.9735 43.2275C40.1979 43.8969 40.2232 44.6131 40.0404 45.2955C39.9374 45.6801 39.784 46.0492 39.5725 46.3871L38.9318 47.4106L40.1085 47.1397C40.7838 46.9844 41.4193 46.7231 42.0175 46.3746L46.9724 43.4889L47.035 43.4009C50.2429 38.8889 50.1944 33.5234 47.4859 28.7677C46.4452 26.9404 45.2105 25.2062 43.9161 23.5511C42.2136 21.3744 40.3726 19.291 38.4938 17.2656L38.3454 17.1057H28.3769L28.2285 17.2657C26.3502 19.2912 24.5096 21.3745 22.8074 23.5511C21.513 25.2062 20.2784 26.9405 19.2376 28.7677C17.5563 31.7199 16.8117 35.0637 17.5002 38.419L17.6399 39.0999L18.4644 38.6212C19.5523 37.9897 20.701 37.4136 21.9248 37.0995C23.2196 36.7671 24.4943 36.7596 25.7728 37.1745C26.5057 37.4125 27.2326 37.676 27.9576 37.9376ZM30.0135 11.2066L26.1494 7.34185C25.7694 6.96185 25.5614 6.4531 25.5614 5.91573C25.5614 5.37835 25.7693 4.86898 26.1497 4.48885C26.8165 3.82248 27.8741 3.70923 28.6675 4.21823C29.1711 4.54135 29.7707 4.59535 30.3237 4.36635C30.8763 4.13748 31.2622 3.6756 31.3897 3.09135C31.5909 2.16935 32.4176 1.50098 33.3616 1.50098C34.3055 1.50098 35.1315 2.1696 35.333 3.0911C35.4608 3.67548 35.847 4.13735 36.3997 4.36635C36.9525 4.59535 37.5515 4.5416 38.055 4.21823C38.8485 3.70873 39.9066 3.82185 40.5734 4.48898C40.9533 4.8691 41.1613 5.3781 41.1613 5.91548C41.1613 6.45285 40.9533 6.96148 40.5733 7.3416L36.7091 11.2064H30.0135V11.2066Z" fill="#03bb78"></path><path fill-rule="evenodd" clip-rule="evenodd" d="M7.23395 45.6027C7.32482 46.2236 6.89495 46.8015 6.27345 46.8911C6.12573 46.9128 5.97517 46.9052 5.8304 46.8687C5.68562 46.8322 5.54945 46.7676 5.42969 46.6784C5.30992 46.5892 5.20891 46.4774 5.13243 46.3491C5.05594 46.2209 5.00549 46.0788 4.98395 45.9311C4.8932 45.3102 5.32295 44.733 5.94445 44.6416C6.56582 44.5502 7.1432 44.9801 7.23395 45.6027ZM60.2819 43.9163L39.6817 56.6012C38.0472 57.6077 36.2536 57.8601 34.3489 57.3488L19.4076 53.3452C19.1514 53.2772 18.8787 53.313 18.6487 53.4448L16.3709 54.7597L10.7464 44.8226L19.2148 39.9203C21.1093 38.823 23.1596 37.9037 25.3093 38.6013C25.9998 38.8248 26.7952 39.1126 27.7162 39.4463C30.3554 40.4003 33.6362 41.5867 37.0396 42.2087C38.2294 42.6238 38.8957 43.7736 38.5909 44.9075C38.1923 46.3987 36.9494 46.5838 35.9617 46.4712C34.2889 46.1262 32.6998 45.674 31.0187 45.1941C30.2216 44.9653 29.3972 44.7301 28.5499 44.5025C28.0157 44.3603 27.4679 44.6763 27.3253 45.21C27.2913 45.3368 27.2825 45.4692 27.2996 45.5994C27.3167 45.7297 27.3593 45.8553 27.425 45.9691C27.4906 46.0829 27.5781 46.1826 27.6823 46.2626C27.7865 46.3426 27.9054 46.4012 28.0323 46.4352C28.8637 46.6575 29.6804 46.891 30.4693 47.1162C32.2023 47.6115 33.8384 48.0791 35.6003 48.4387C35.6068 48.44 37.0508 48.6752 37.0508 48.6752C39.1606 49.0125 41.0321 48.6841 42.7732 47.6716L54.1232 41.0588C57.3957 39.1537 59.9146 38.9615 60.8622 40.5441C61.5161 41.635 61.2236 43.3378 60.2819 43.9163ZM16.3308 60.1125C16.6474 59.9338 16.7636 59.5152 16.5843 59.1991L7.22157 42.6538C7.0417 42.3361 6.61957 42.224 6.30645 42.4003L3.12182 44.2028C2.8052 44.3827 2.68907 44.8013 2.86832 45.1173L12.2312 61.6615C12.4104 61.9787 12.8297 62.0948 13.1463 61.915L16.3308 60.1125ZM19.6718 29.0156C17.9329 32.0682 17.3616 35.2587 17.9896 38.3188L18.2131 38.1891C20.3983 36.9237 23.0233 35.7575 25.9267 36.6991C26.5758 36.9102 27.3282 37.179 28.1272 37.4673C28.1148 37.4248 28.1024 37.3812 28.0918 37.3376C27.9579 36.8022 28.2841 36.2586 28.8201 36.1258C29.3561 35.992 29.8986 36.3186 30.0323 36.8535C30.2999 37.9283 31.0889 38.465 31.7152 38.7291C33.0791 39.3011 35.1722 39.2002 36.1958 38.0162C36.4959 37.6701 36.6121 37.2573 36.5508 36.7538C36.4506 35.9325 35.9759 34.9313 33.1646 34.4696C29.4446 33.8587 28.5778 31.9525 28.5052 30.4612C28.4049 28.3957 29.8448 26.6657 32.0884 26.1575C32.1636 26.1404 32.239 26.1249 32.3148 26.111V25.1427C32.3148 25.0114 32.3407 24.8814 32.3909 24.7601C32.4412 24.6388 32.5148 24.5286 32.6076 24.4358C32.7005 24.343 32.8107 24.2693 32.932 24.2191C33.0533 24.1688 33.1833 24.143 33.3146 24.143C33.4459 24.143 33.5759 24.1688 33.6972 24.2191C33.8185 24.2693 33.9287 24.343 34.0215 24.4358C34.1143 24.5286 34.188 24.6388 34.2382 24.7601C34.2885 24.8814 34.3143 25.0114 34.3143 25.1427V26.1027C35.8638 26.3692 37.3733 27.2937 38.1381 29.117C38.189 29.238 38.2156 29.3679 38.2163 29.4993C38.217 29.6306 38.1917 29.7608 38.1421 29.8823C38.0924 30.0039 38.0193 30.1145 37.9268 30.2078C37.8344 30.3011 37.7244 30.3752 37.6033 30.426C37.0944 30.64 36.5083 30.4 36.2949 29.8912C35.7359 28.5597 34.5373 28.018 33.3786 28.0143C33.3435 28.0165 33.3082 28.0169 33.2731 28.0155C33.0232 28.0218 32.7745 28.0526 32.5307 28.1075C31.5088 28.3397 30.4392 29.0538 30.5029 30.364C30.5247 30.8168 30.5831 32.0191 33.4888 32.4961C34.6398 32.6847 38.1411 33.2602 38.5362 36.5127C38.6659 37.5776 38.3793 38.55 37.7096 39.3247C37.4501 39.6248 37.1323 39.8901 36.7738 40.119C37.0032 40.1661 37.2349 40.2116 37.4672 40.254C37.5108 40.261 37.5544 40.2722 37.5974 40.2863C39.8168 41.0063 41.1023 43.2622 40.5232 45.4251C40.4012 45.8802 40.2231 46.2901 39.9961 46.6527C40.6058 46.5123 41.1907 46.2771 41.7656 45.9427L46.6271 43.1113C49.6107 38.9148 49.7698 33.7897 47.0511 29.0155C45.2533 25.8591 42.4124 22.2258 38.1269 17.606H28.5948C24.3104 22.2258 21.4696 25.8586 19.6718 29.0156ZM27.8967 12.7061H38.8262C39.6246 12.7061 40.2756 13.3565 40.2756 14.156C40.2756 14.9555 39.6247 15.6058 38.8262 15.6058H27.8967C27.0972 15.6058 26.4468 14.9555 26.4468 14.156C26.4468 13.3565 27.0971 12.7061 27.8967 12.7061ZM26.0611 5.91585C26.0611 5.50847 26.2179 5.12697 26.5027 4.84272C27.0033 4.3421 27.7999 4.2566 28.3972 4.63935C29.0387 5.05147 29.8106 5.11985 30.5146 4.8286C31.2186 4.53672 31.7157 3.94235 31.8778 3.19822C32.0293 2.50485 32.6532 2.00122 33.3613 2.00122C34.0689 2.00122 34.6927 2.50485 34.8443 3.19822C35.0071 3.94235 35.5041 4.53672 36.2082 4.8286C36.9122 5.11985 37.6834 5.05147 38.3249 4.63935C38.9222 4.2561 39.7194 4.3416 40.2194 4.84272C40.5043 5.12697 40.6611 5.50847 40.6611 5.91585C40.6611 6.32272 40.5042 6.7036 40.2194 6.98835L36.5018 10.7066H30.2204L26.5028 6.98835C26.2179 6.7036 26.0611 6.32272 26.0611 5.91585ZM62.5786 39.5165C61.9848 38.5265 59.5496 35.5853 53.1172 39.3313L49.9497 41.1763C50.5146 39.7688 50.8536 38.2912 50.9497 36.7888C51.1372 33.8223 50.4108 30.8742 48.7881 28.0256C47.0398 24.9547 44.3758 21.4865 40.4629 17.1916C41.5419 16.6072 42.2754 15.4657 42.2754 14.1561C42.2754 12.4143 40.9771 10.9702 39.2972 10.7397L41.6333 8.40235C43.0059 7.03147 43.0059 4.7996 41.6333 3.4281C40.4736 2.26772 38.6268 2.06897 37.2447 2.95635C37.1533 3.01535 37.0743 3.02235 36.9734 2.9811C36.8721 2.9386 36.8219 2.87785 36.7983 2.7711C36.4482 1.16635 35.0024 0.0012207 33.3608 0.0012207C31.7198 0.0018457 30.2747 1.16635 29.9244 2.77135C29.9008 2.8781 29.8502 2.93885 29.7493 2.98072C29.6484 3.0226 29.5694 3.01547 29.4769 2.9566C28.0948 2.06922 26.2492 2.26785 25.0882 3.42835C24.4261 4.0911 24.0611 4.97435 24.0611 5.91597C24.0611 6.8571 24.4261 7.74035 25.0882 8.40247L27.4249 10.7398C25.7457 10.9703 24.4467 12.4138 24.4467 14.1562C24.4467 15.4658 25.1808 16.6073 26.2586 17.1917C22.3463 21.486 19.6829 24.9548 17.9334 28.0257C15.8254 31.7268 15.2253 35.6308 16.1781 39.368L9.7617 43.0826L8.96157 41.6686C8.23632 40.3873 6.60295 39.9351 5.3212 40.6603L2.13657 42.4628C0.854571 43.1875 0.401821 44.8213 1.12707 46.1027L10.4906 62.6473C10.9817 63.5141 11.8881 64.0023 12.8202 64.0023C13.2653 64.0023 13.7171 63.8903 14.1316 63.6562L17.3162 61.8537C18.5981 61.1278 19.0509 59.4951 18.3251 58.2127L17.3563 56.5016L19.2897 55.3855L33.8314 59.2812C34.6516 59.5012 35.4571 59.6102 36.2448 59.6102C37.8162 59.6102 39.3186 59.1738 40.7308 58.3041L61.3311 45.6203C63.2059 44.4665 63.7997 41.5566 62.5786 39.5165Z" fill="black"></path></g><defs><clipPath id="clip0_12_157"><rect width="64" height="64" fill="white"></rect></clipPath></defs></svg>