<svg xmlns="http://www.w3.org/2000/svg" width="64" height="64" viewBox="0 0 64 64" fill="none"><g clip-path="url(#clip0_12_160)"><path opacity="0.5" d="M4 6C4 2.68629 6.68629 0 10 0H30C41.0457 0 50 8.95431 50 20V58C50 60.7614 47.7614 63 45 63H9C6.23858 63 4 60.7614 4 58V6Z" fill="#03bb78"></path><path d="M15.1875 49.2499H11.4375C10.6918 49.2506 9.9768 49.5471 9.44949 50.0744C8.92219 50.6017 8.62566 51.3167 8.625 52.0624V55.8124C8.62566 56.5582 8.92219 57.2731 9.44949 57.8004C9.9768 58.3277 10.6918 58.6243 11.4375 58.6249H15.1875C15.9332 58.6243 16.6482 58.3277 17.1755 57.8004C17.7028 57.2731 17.9993 56.5582 18 55.8124V52.0624C17.9993 51.3167 17.7028 50.6017 17.1755 50.0744C16.6482 49.5471 15.9332 49.2506 15.1875 49.2499ZM16.125 55.8124C16.125 56.0611 16.0262 56.2995 15.8504 56.4753C15.6746 56.6512 15.4361 56.7499 15.1875 56.7499H11.4375C11.1889 56.7499 10.9504 56.6512 10.7746 56.4753C10.5988 56.2995 10.5 56.0611 10.5 55.8124V52.0624C10.5 51.8138 10.5988 51.5753 10.7746 51.3995C10.9504 51.2237 11.1889 51.1249 11.4375 51.1249H15.1875C15.4361 51.1249 15.6746 51.2237 15.8504 51.3995C16.0262 51.5753 16.125 51.8138 16.125 52.0624V55.8124ZM20.8125 30.4999H29.0625C29.3111 30.4999 29.5496 30.4012 29.7254 30.2253C29.9012 30.0495 30 29.8111 30 29.5624C30 29.3138 29.9012 29.0753 29.7254 28.8995C29.5496 28.7237 29.3111 28.6249 29.0625 28.6249H20.8125C20.5639 28.6249 20.3254 28.7237 20.1496 28.8995C19.9738 29.0753 19.875 29.3138 19.875 29.5624C19.875 29.8111 19.9738 30.0495 20.1496 30.2253C20.3254 30.4012 20.5639 30.4999 20.8125 30.4999ZM20.8125 17.3749H36.5625C36.8111 17.3749 37.0496 17.2762 37.2254 17.1003C37.4012 16.9245 37.5 16.6861 37.5 16.4374C37.5 16.1888 37.4012 15.9503 37.2254 15.7745C37.0496 15.5987 36.8111 15.4999 36.5625 15.4999H20.8125C20.5639 15.4999 20.3254 15.5987 20.1496 15.7745C19.9738 15.9503 19.875 16.1888 19.875 16.4374C19.875 16.6861 19.9738 16.9245 20.1496 17.1003C20.3254 17.2762 20.5639 17.3749 20.8125 17.3749ZM20.8125 26.7499H44.0625C44.3111 26.7499 44.5496 26.6512 44.7254 26.4753C44.9012 26.2995 45 26.0611 45 25.8124C45 25.5638 44.9012 25.3253 44.7254 25.1495C44.5496 24.9737 44.3111 24.8749 44.0625 24.8749H20.8125C20.5639 24.8749 20.3254 24.9737 20.1496 25.1495C19.9738 25.3253 19.875 25.5638 19.875 25.8124C19.875 26.0611 19.9738 26.2995 20.1496 26.4753C20.3254 26.6512 20.5639 26.7499 20.8125 26.7499ZM20.8125 39.8749H40.3125C40.5611 39.8749 40.7996 39.7762 40.9754 39.6003C41.1512 39.4245 41.25 39.1861 41.25 38.9374C41.25 38.6888 41.1512 38.4503 40.9754 38.2745C40.7996 38.0987 40.5611 37.9999 40.3125 37.9999H20.8125C20.5639 37.9999 20.3254 38.0987 20.1496 38.2745C19.9738 38.4503 19.875 38.6888 19.875 38.9374C19.875 39.1861 19.9738 39.4245 20.1496 39.6003C20.3254 39.7762 20.5639 39.8749 20.8125 39.8749ZM20.8125 52.9999H32.2738C32.5224 52.9999 32.7608 52.9012 32.9367 52.7253C33.1125 52.5495 33.2113 52.3111 33.2113 52.0624C33.2113 51.8138 33.1125 51.5753 32.9367 51.3995C32.7608 51.2237 32.5224 51.1249 32.2738 51.1249H20.8125C20.5639 51.1249 20.3254 51.2237 20.1496 51.3995C19.9738 51.5753 19.875 51.8138 19.875 52.0624C19.875 52.3111 19.9738 52.5495 20.1496 52.7253C20.3254 52.9012 20.5639 52.9999 20.8125 52.9999ZM34.69 41.7499H20.815C20.5664 41.7499 20.3279 41.8487 20.1521 42.0245C19.9763 42.2003 19.8775 42.4388 19.8775 42.6874C19.8775 42.9361 19.9763 43.1745 20.1521 43.3503C20.3279 43.5262 20.5664 43.6249 20.815 43.6249H34.69C34.9386 43.6249 35.1771 43.5262 35.3529 43.3503C35.5287 43.1745 35.6275 42.9361 35.6275 42.6874C35.6275 42.4388 35.5287 42.2003 35.3529 42.0245C35.1771 41.8487 34.9386 41.7499 34.69 41.7499ZM57.46 43.3749C55.7689 41.6712 53.6057 40.5139 51.25 40.0524V12.8124C51.2519 12.7812 51.2519 12.7499 51.25 12.7187C51.25 12.6962 51.25 12.6737 51.24 12.6512C51.2406 12.6433 51.2406 12.6353 51.24 12.6274C51.24 12.6012 51.2275 12.5737 51.22 12.5474C51.2205 12.545 51.2205 12.5424 51.22 12.5399C51.2125 12.5124 51.2025 12.4862 51.1925 12.4599C51.1925 12.4599 51.1925 12.4599 51.1925 12.4537C51.1825 12.4287 51.17 12.4049 51.1588 12.3812L51.1525 12.3699C51.1413 12.3487 51.1288 12.3287 51.1163 12.3087L51.105 12.2912C51.0925 12.2724 51.08 12.2549 51.0663 12.2374C51.0612 12.2305 51.0558 12.2238 51.05 12.2174C51.0351 12.1991 51.0193 12.1815 51.0025 12.1649L50.9888 12.1499L39.1138 0.274936L39.0988 0.261186C39.0813 0.244936 39.065 0.228686 39.0463 0.213686L39.0263 0.197436L38.9725 0.158686L38.955 0.147436C38.935 0.134936 38.915 0.122436 38.8938 0.111186L38.875 0.104936C38.8513 0.0936859 38.8275 0.0811859 38.8025 0.0711859H38.7963C38.77 0.0611859 38.7438 0.0511859 38.7175 0.0436859H38.7088C38.6825 0.0361859 38.655 0.0286859 38.6288 0.0236859C38.6208 0.0230834 38.6129 0.0230834 38.605 0.0236859L38.5313 -6.40616e-05C38.5 -0.00193177 38.4687 -0.00193177 38.4375 -6.40617e-05L7.6875 -6.40616e-05C6.4447 0.00125947 5.25319 0.495545 4.3744 1.37433C3.49561 2.25312 3.00132 3.44464 3 4.68744V59.3124C3.00132 60.5552 3.49561 61.7467 4.3744 62.6255C5.25319 63.5043 6.4447 63.9986 7.6875 63.9999H48.4375C48.4726 63.9997 48.5076 63.9976 48.5425 63.9937C48.6675 63.9937 48.7925 63.9999 48.9175 63.9999C51.3067 63.999 53.6419 63.29 55.6283 61.9624C57.6146 60.6348 59.1629 58.7483 60.0775 56.5411C60.9921 54.3339 61.2319 51.9052 60.7667 49.5618C60.3015 47.2183 59.1521 45.0654 57.4638 43.3749H57.46ZM39.375 3.20119L48.0488 11.8749H42.1875C41.4418 11.8743 40.7268 11.5777 40.1995 11.0504C39.6722 10.5231 39.3757 9.80815 39.375 9.06244V3.20119ZM7.6875 62.1249C6.94178 62.1243 6.2268 61.8277 5.69949 61.3004C5.17219 60.7731 4.87566 60.0582 4.875 59.3124V4.68744C4.87566 3.94172 5.17219 3.22673 5.69949 2.69943C6.2268 2.17213 6.94178 1.8756 7.6875 1.87494H37.5V9.06244C37.4987 10.0773 37.8288 11.0648 38.44 11.8749H20.815C20.5664 11.8749 20.3279 11.9737 20.1521 12.1495C19.9763 12.3253 19.8775 12.5638 19.8775 12.8124C19.8775 13.0611 19.9763 13.2995 20.1521 13.4753C20.3279 13.6512 20.5664 13.7499 20.815 13.7499H49.375V39.8374C49.2213 39.8374 49.0688 39.8287 48.9138 39.8287C46.524 39.8298 44.1881 40.5395 42.2016 41.8679C40.2151 43.1964 38.667 45.084 37.7531 47.2922C36.8392 49.5003 36.6005 51.9299 37.0672 54.2737C37.5339 56.6175 38.685 58.7703 40.375 60.4599C41.0013 61.0883 41.6941 61.6466 42.4413 62.1249H7.6875ZM56.1338 59.1337C54.4635 60.8034 52.2659 61.8424 49.9155 62.0736C47.565 62.3047 45.2072 61.7138 43.2436 60.4014C41.28 59.0891 39.8322 57.1365 39.1468 54.8763C38.4614 52.6162 38.5809 50.1883 39.4849 48.0064C40.3889 45.8245 42.0214 44.0235 44.1043 42.9103C46.1873 41.797 48.5918 41.4405 50.9082 41.9013C53.2246 42.3621 55.3095 43.6118 56.8078 45.4375C58.3061 47.2632 59.125 49.5519 59.125 51.9137C59.1287 53.2552 58.8663 54.5841 58.3528 55.8234C57.8393 57.0627 57.0851 58.1879 56.1338 59.1337ZM15.1875 9.87494H11.4375C10.6918 9.8756 9.9768 10.1721 9.44949 10.6994C8.92219 11.2267 8.62566 11.9417 8.625 12.6874V16.4374C8.62566 17.1832 8.92219 17.8981 9.44949 18.4254C9.9768 18.9527 10.6918 19.2493 11.4375 19.2499H15.1875C15.9332 19.2493 16.6482 18.9527 17.1755 18.4254C17.7028 17.8981 17.9993 17.1832 18 16.4374V12.6874C17.9993 11.9417 17.7028 11.2267 17.1755 10.6994C16.6482 10.1721 15.9332 9.8756 15.1875 9.87494ZM16.125 16.4374C16.125 16.6861 16.0262 16.9245 15.8504 17.1003C15.6746 17.2762 15.4361 17.3749 15.1875 17.3749H11.4375C11.1889 17.3749 10.9504 17.2762 10.7746 17.1003C10.5988 16.9245 10.5 16.6861 10.5 16.4374V12.6874C10.5 12.4388 10.5988 12.2003 10.7746 12.0245C10.9504 11.8487 11.1889 11.7499 11.4375 11.7499H15.1875C15.4361 11.7499 15.6746 11.8487 15.8504 12.0245C16.0262 12.2003 16.125 12.4388 16.125 12.6874V16.4374ZM32.3238 54.8749H20.8125C20.5639 54.8749 20.3254 54.9737 20.1496 55.1495C19.9738 55.3253 19.875 55.5638 19.875 55.8124C19.875 56.0611 19.9738 56.2995 20.1496 56.4753C20.3254 56.6512 20.5639 56.7499 20.8125 56.7499H32.3238C32.5724 56.7499 32.8109 56.6512 32.9867 56.4753C33.1625 56.2995 33.2613 56.0611 33.2613 55.8124C33.2613 55.5638 33.1625 55.3253 32.9867 55.1495C32.8109 54.9737 32.5724 54.8749 32.3238 54.8749ZM15.1875 22.9999H11.4375C10.6918 23.0006 9.9768 23.2971 9.44949 23.8244C8.92219 24.3517 8.62566 25.0667 8.625 25.8124V29.5624C8.62566 30.3082 8.92219 31.0231 9.44949 31.5504C9.9768 32.0777 10.6918 32.3743 11.4375 32.3749H15.1875C15.9332 32.3743 16.6482 32.0777 17.1755 31.5504C17.7028 31.0231 17.9993 30.3082 18 29.5624V25.8124C17.9993 25.0667 17.7028 24.3517 17.1755 23.8244C16.6482 23.2971 15.9332 23.0006 15.1875 22.9999ZM16.125 29.5624C16.125 29.8111 16.0262 30.0495 15.8504 30.2253C15.6746 30.4012 15.4361 30.4999 15.1875 30.4999H11.4375C11.1889 30.4999 10.9504 30.4012 10.7746 30.2253C10.5988 30.0495 10.5 29.8111 10.5 29.5624V25.8124C10.5 25.5638 10.5988 25.3253 10.7746 25.1495C10.9504 24.9737 11.1889 24.8749 11.4375 24.8749H15.1875C15.4361 24.8749 15.6746 24.9737 15.8504 25.1495C16.0262 25.3253 16.125 25.5638 16.125 25.8124V29.5624ZM15.1875 36.1249H11.4375C10.6918 36.1256 9.9768 36.4221 9.44949 36.9494C8.92219 37.4767 8.62566 38.1917 8.625 38.9374V42.6874C8.62566 43.4332 8.92219 44.1481 9.44949 44.6754C9.9768 45.2027 10.6918 45.4993 11.4375 45.4999H15.1875C15.9332 45.4993 16.6482 45.2027 17.1755 44.6754C17.7028 44.1481 17.9993 43.4332 18 42.6874V38.9374C17.9993 38.1917 17.7028 37.4767 17.1755 36.9494C16.6482 36.4221 15.9332 36.1256 15.1875 36.1249ZM16.125 42.6874C16.125 42.9361 16.0262 43.1745 15.8504 43.3503C15.6746 43.5262 15.4361 43.6249 15.1875 43.6249H11.4375C11.1889 43.6249 10.9504 43.5262 10.7746 43.3503C10.5988 43.1745 10.5 42.9361 10.5 42.6874V38.9374C10.5 38.6888 10.5988 38.4503 10.7746 38.2745C10.9504 38.0987 11.1889 37.9999 11.4375 37.9999H15.1875C15.4361 37.9999 15.6746 38.0987 15.8504 38.2745C16.0262 38.4503 16.125 38.6888 16.125 38.9374V42.6874Z" fill="black"></path><path d="M15.1875 49.2499H11.4375C10.6918 49.2506 9.9768 49.5471 9.44949 50.0744C8.92219 50.6017 8.62566 51.3167 8.625 52.0624V55.8124C8.62566 56.5582 8.92219 57.2731 9.44949 57.8004C9.9768 58.3277 10.6918 58.6243 11.4375 58.6249H15.1875C15.9332 58.6243 16.6482 58.3277 17.1755 57.8004C17.7028 57.2731 17.9993 56.5582 18 55.8124V52.0624C17.9993 51.3167 17.7028 50.6017 17.1755 50.0744C16.6482 49.5471 15.9332 49.2506 15.1875 49.2499ZM16.125 55.8124C16.125 56.0611 16.0262 56.2995 15.8504 56.4753C15.6746 56.6512 15.4361 56.7499 15.1875 56.7499H11.4375C11.1889 56.7499 10.9504 56.6512 10.7746 56.4753C10.5988 56.2995 10.5 56.0611 10.5 55.8124V52.0624C10.5 51.8138 10.5988 51.5753 10.7746 51.3995C10.9504 51.2237 11.1889 51.1249 11.4375 51.1249H15.1875C15.4361 51.1249 15.6746 51.2237 15.8504 51.3995C16.0262 51.5753 16.125 51.8138 16.125 52.0624V55.8124ZM20.8125 30.4999H29.0625C29.3111 30.4999 29.5496 30.4012 29.7254 30.2253C29.9012 30.0495 30 29.8111 30 29.5624C30 29.3138 29.9012 29.0753 29.7254 28.8995C29.5496 28.7237 29.3111 28.6249 29.0625 28.6249H20.8125C20.5639 28.6249 20.3254 28.7237 20.1496 28.8995C19.9738 29.0753 19.875 29.3138 19.875 29.5624C19.875 29.8111 19.9738 30.0495 20.1496 30.2253C20.3254 30.4012 20.5639 30.4999 20.8125 30.4999ZM20.8125 17.3749H36.5625C36.8111 17.3749 37.0496 17.2762 37.2254 17.1003C37.4012 16.9245 37.5 16.6861 37.5 16.4374C37.5 16.1888 37.4012 15.9503 37.2254 15.7745C37.0496 15.5987 36.8111 15.4999 36.5625 15.4999H20.8125C20.5639 15.4999 20.3254 15.5987 20.1496 15.7745C19.9738 15.9503 19.875 16.1888 19.875 16.4374C19.875 16.6861 19.9738 16.9245 20.1496 17.1003C20.3254 17.2762 20.5639 17.3749 20.8125 17.3749ZM20.8125 26.7499H44.0625C44.3111 26.7499 44.5496 26.6512 44.7254 26.4753C44.9012 26.2995 45 26.0611 45 25.8124C45 25.5638 44.9012 25.3253 44.7254 25.1495C44.5496 24.9737 44.3111 24.8749 44.0625 24.8749H20.8125C20.5639 24.8749 20.3254 24.9737 20.1496 25.1495C19.9738 25.3253 19.875 25.5638 19.875 25.8124C19.875 26.0611 19.9738 26.2995 20.1496 26.4753C20.3254 26.6512 20.5639 26.7499 20.8125 26.7499ZM20.8125 39.8749H40.3125C40.5611 39.8749 40.7996 39.7762 40.9754 39.6003C41.1512 39.4245 41.25 39.1861 41.25 38.9374C41.25 38.6888 41.1512 38.4503 40.9754 38.2745C40.7996 38.0987 40.5611 37.9999 40.3125 37.9999H20.8125C20.5639 37.9999 20.3254 38.0987 20.1496 38.2745C19.9738 38.4503 19.875 38.6888 19.875 38.9374C19.875 39.1861 19.9738 39.4245 20.1496 39.6003C20.3254 39.7762 20.5639 39.8749 20.8125 39.8749ZM20.8125 52.9999H32.2738C32.5224 52.9999 32.7608 52.9012 32.9367 52.7253C33.1125 52.5495 33.2113 52.3111 33.2113 52.0624C33.2113 51.8138 33.1125 51.5753 32.9367 51.3995C32.7608 51.2237 32.5224 51.1249 32.2738 51.1249H20.8125C20.5639 51.1249 20.3254 51.2237 20.1496 51.3995C19.9738 51.5753 19.875 51.8138 19.875 52.0624C19.875 52.3111 19.9738 52.5495 20.1496 52.7253C20.3254 52.9012 20.5639 52.9999 20.8125 52.9999ZM34.69 41.7499H20.815C20.5664 41.7499 20.3279 41.8487 20.1521 42.0245C19.9763 42.2003 19.8775 42.4388 19.8775 42.6874C19.8775 42.9361 19.9763 43.1745 20.1521 43.3503C20.3279 43.5262 20.5664 43.6249 20.815 43.6249H34.69C34.9386 43.6249 35.1771 43.5262 35.3529 43.3503C35.5287 43.1745 35.6275 42.9361 35.6275 42.6874C35.6275 42.4388 35.5287 42.2003 35.3529 42.0245C35.1771 41.8487 34.9386 41.7499 34.69 41.7499ZM57.46 43.3749C55.7689 41.6712 53.6057 40.5139 51.25 40.0524V12.8124C51.2519 12.7812 51.2519 12.7499 51.25 12.7187C51.25 12.6962 51.25 12.6737 51.24 12.6512C51.2406 12.6433 51.2406 12.6353 51.24 12.6274C51.24 12.6012 51.2275 12.5737 51.22 12.5474C51.2205 12.545 51.2205 12.5424 51.22 12.5399C51.2125 12.5124 51.2025 12.4862 51.1925 12.4599C51.1925 12.4599 51.1925 12.4599 51.1925 12.4537C51.1825 12.4287 51.17 12.4049 51.1588 12.3812L51.1525 12.3699C51.1413 12.3487 51.1288 12.3287 51.1163 12.3087L51.105 12.2912C51.0925 12.2724 51.08 12.2549 51.0663 12.2374C51.0612 12.2305 51.0558 12.2238 51.05 12.2174C51.0351 12.1991 51.0193 12.1815 51.0025 12.1649L50.9888 12.1499L39.1138 0.274936L39.0988 0.261186C39.0813 0.244936 39.065 0.228686 39.0463 0.213686L39.0263 0.197436L38.9725 0.158686L38.955 0.147436C38.935 0.134936 38.915 0.122436 38.8938 0.111186L38.875 0.104936C38.8513 0.0936859 38.8275 0.0811859 38.8025 0.0711859H38.7963C38.77 0.0611859 38.7438 0.0511859 38.7175 0.0436859H38.7088C38.6825 0.0361859 38.655 0.0286859 38.6288 0.0236859C38.6208 0.0230834 38.6129 0.0230834 38.605 0.0236859L38.5313 -6.40616e-05C38.5 -0.00193177 38.4687 -0.00193177 38.4375 -6.40617e-05L7.6875 -6.40616e-05C6.4447 0.00125947 5.25319 0.495545 4.3744 1.37433C3.49561 2.25312 3.00132 3.44464 3 4.68744V59.3124C3.00132 60.5552 3.49561 61.7467 4.3744 62.6255C5.25319 63.5043 6.4447 63.9986 7.6875 63.9999H48.4375C48.4726 63.9997 48.5076 63.9976 48.5425 63.9937C48.6675 63.9937 48.7925 63.9999 48.9175 63.9999C51.3067 63.999 53.6419 63.29 55.6283 61.9624C57.6146 60.6348 59.1629 58.7483 60.0775 56.5411C60.9921 54.3339 61.2319 51.9052 60.7667 49.5618C60.3015 47.2183 59.1521 45.0654 57.4638 43.3749H57.46ZM39.375 3.20119L48.0488 11.8749H42.1875C41.4418 11.8743 40.7268 11.5777 40.1995 11.0504C39.6722 10.5231 39.3757 9.80815 39.375 9.06244V3.20119ZM7.6875 62.1249C6.94178 62.1243 6.2268 61.8277 5.69949 61.3004C5.17219 60.7731 4.87566 60.0582 4.875 59.3124V4.68744C4.87566 3.94172 5.17219 3.22673 5.69949 2.69943C6.2268 2.17213 6.94178 1.8756 7.6875 1.87494H37.5V9.06244C37.4987 10.0773 37.8288 11.0648 38.44 11.8749H20.815C20.5664 11.8749 20.3279 11.9737 20.1521 12.1495C19.9763 12.3253 19.8775 12.5638 19.8775 12.8124C19.8775 13.0611 19.9763 13.2995 20.1521 13.4753C20.3279 13.6512 20.5664 13.7499 20.815 13.7499H49.375V39.8374C49.2213 39.8374 49.0688 39.8287 48.9138 39.8287C46.524 39.8298 44.1881 40.5395 42.2016 41.8679C40.2151 43.1964 38.667 45.084 37.7531 47.2922C36.8392 49.5003 36.6005 51.9299 37.0672 54.2737C37.5339 56.6175 38.685 58.7703 40.375 60.4599C41.0013 61.0883 41.6941 61.6466 42.4413 62.1249H7.6875ZM56.1338 59.1337C54.4635 60.8034 52.2659 61.8424 49.9155 62.0736C47.565 62.3047 45.2072 61.7138 43.2436 60.4014C41.28 59.0891 39.8322 57.1365 39.1468 54.8763C38.4614 52.6162 38.5809 50.1883 39.4849 48.0064C40.3889 45.8245 42.0214 44.0235 44.1043 42.9103C46.1873 41.797 48.5918 41.4405 50.9082 41.9013C53.2246 42.3621 55.3095 43.6118 56.8078 45.4375C58.3061 47.2632 59.125 49.5519 59.125 51.9137C59.1287 53.2552 58.8663 54.5841 58.3528 55.8234C57.8393 57.0627 57.0851 58.1879 56.1338 59.1337ZM15.1875 9.87494H11.4375C10.6918 9.8756 9.9768 10.1721 9.44949 10.6994C8.92219 11.2267 8.62566 11.9417 8.625 12.6874V16.4374C8.62566 17.1832 8.92219 17.8981 9.44949 18.4254C9.9768 18.9527 10.6918 19.2493 11.4375 19.2499H15.1875C15.9332 19.2493 16.6482 18.9527 17.1755 18.4254C17.7028 17.8981 17.9993 17.1832 18 16.4374V12.6874C17.9993 11.9417 17.7028 11.2267 17.1755 10.6994C16.6482 10.1721 15.9332 9.8756 15.1875 9.87494ZM16.125 16.4374C16.125 16.6861 16.0262 16.9245 15.8504 17.1003C15.6746 17.2762 15.4361 17.3749 15.1875 17.3749H11.4375C11.1889 17.3749 10.9504 17.2762 10.7746 17.1003C10.5988 16.9245 10.5 16.6861 10.5 16.4374V12.6874C10.5 12.4388 10.5988 12.2003 10.7746 12.0245C10.9504 11.8487 11.1889 11.7499 11.4375 11.7499H15.1875C15.4361 11.7499 15.6746 11.8487 15.8504 12.0245C16.0262 12.2003 16.125 12.4388 16.125 12.6874V16.4374ZM32.3238 54.8749H20.8125C20.5639 54.8749 20.3254 54.9737 20.1496 55.1495C19.9738 55.3253 19.875 55.5638 19.875 55.8124C19.875 56.0611 19.9738 56.2995 20.1496 56.4753C20.3254 56.6512 20.5639 56.7499 20.8125 56.7499H32.3238C32.5724 56.7499 32.8109 56.6512 32.9867 56.4753C33.1625 56.2995 33.2613 56.0611 33.2613 55.8124C33.2613 55.5638 33.1625 55.3253 32.9867 55.1495C32.8109 54.9737 32.5724 54.8749 32.3238 54.8749ZM15.1875 22.9999H11.4375C10.6918 23.0006 9.9768 23.2971 9.44949 23.8244C8.92219 24.3517 8.62566 25.0667 8.625 25.8124V29.5624C8.62566 30.3082 8.92219 31.0231 9.44949 31.5504C9.9768 32.0777 10.6918 32.3743 11.4375 32.3749H15.1875C15.9332 32.3743 16.6482 32.0777 17.1755 31.5504C17.7028 31.0231 17.9993 30.3082 18 29.5624V25.8124C17.9993 25.0667 17.7028 24.3517 17.1755 23.8244C16.6482 23.2971 15.9332 23.0006 15.1875 22.9999ZM16.125 29.5624C16.125 29.8111 16.0262 30.0495 15.8504 30.2253C15.6746 30.4012 15.4361 30.4999 15.1875 30.4999H11.4375C11.1889 30.4999 10.9504 30.4012 10.7746 30.2253C10.5988 30.0495 10.5 29.8111 10.5 29.5624V25.8124C10.5 25.5638 10.5988 25.3253 10.7746 25.1495C10.9504 24.9737 11.1889 24.8749 11.4375 24.8749H15.1875C15.4361 24.8749 15.6746 24.9737 15.8504 25.1495C16.0262 25.3253 16.125 25.5638 16.125 25.8124V29.5624ZM15.1875 36.1249H11.4375C10.6918 36.1256 9.9768 36.4221 9.44949 36.9494C8.92219 37.4767 8.62566 38.1917 8.625 38.9374V42.6874C8.62566 43.4332 8.92219 44.1481 9.44949 44.6754C9.9768 45.2027 10.6918 45.4993 11.4375 45.4999H15.1875C15.9332 45.4993 16.6482 45.2027 17.1755 44.6754C17.7028 44.1481 17.9993 43.4332 18 42.6874V38.9374C17.9993 38.1917 17.7028 37.4767 17.1755 36.9494C16.6482 36.4221 15.9332 36.1256 15.1875 36.1249ZM16.125 42.6874C16.125 42.9361 16.0262 43.1745 15.8504 43.3503C15.6746 43.5262 15.4361 43.6249 15.1875 43.6249H11.4375C11.1889 43.6249 10.9504 43.5262 10.7746 43.3503C10.5988 43.1745 10.5 42.9361 10.5 42.6874V38.9374C10.5 38.6888 10.5988 38.4503 10.7746 38.2745C10.9504 38.0987 11.1889 37.9999 11.4375 37.9999H15.1875C15.4361 37.9999 15.6746 38.0987 15.8504 38.2745C16.0262 38.4503 16.125 38.6888 16.125 38.9374V42.6874Z" fill="black"></path><circle cx="49.5" cy="51.5" r="10.5" fill="#03bb78"></circle><path d="M49 39C42.376 39 37 44.6 37 51.5C37 58.4 42.376 64 49 64C55.624 64 61 58.4 61 51.5C61 44.6 55.624 39 49 39ZM45.748 56.8625L41.44 52.375C41.3289 52.2593 41.2408 52.1219 41.1806 51.9707C41.1205 51.8195 41.0896 51.6574 41.0896 51.4937C41.0896 51.3301 41.1205 51.168 41.1806 51.0168C41.2408 50.8656 41.3289 50.7282 41.44 50.6125C41.5511 50.4968 41.683 50.405 41.8281 50.3423C41.9733 50.2797 42.1289 50.2475 42.286 50.2475C42.4431 50.2475 42.5987 50.2797 42.7439 50.3423C42.889 50.405 43.0209 50.4968 43.132 50.6125L46.6 54.2125L54.856 45.6125C55.0804 45.3788 55.3847 45.2475 55.702 45.2475C56.0193 45.2475 56.3236 45.3788 56.548 45.6125C56.7724 45.8462 56.8984 46.1632 56.8984 46.4937C56.8984 46.8243 56.7724 47.1413 56.548 47.375L47.44 56.8625C47.329 56.9784 47.1971 57.0703 47.0519 57.133C46.9068 57.1958 46.7512 57.2281 46.594 57.2281C46.4368 57.2281 46.2812 57.1958 46.1361 57.133C45.9909 57.0703 45.859 56.9784 45.748 56.8625Z" fill="black"></path></g><defs><clipPath id="clip0_12_160"><rect width="64" height="64" fill="white"></rect></clipPath></defs></svg>