<svg xmlns="http://www.w3.org/2000/svg" width="64" height="64" viewBox="0 0 64 64" fill="none"><path d="M34.0005 43.83V46.17C34.0005 46.3901 33.913 46.6012 33.7574 46.7569C33.6017 46.9126 33.3906 47 33.1705 47H23.1705C23.1753 46.9101 23.1753 46.8199 23.1705 46.73C23.0899 46.1385 22.9423 45.5581 22.7305 45C22.4816 44.2944 22.1456 43.6225 21.7305 43H33.1705C33.3906 43 33.6017 43.0874 33.7574 43.2431C33.913 43.3988 34.0005 43.6099 34.0005 43.83Z" fill="#03bb78"></path><path d="M58.17 55H41.83C41.3716 55 41 55.3716 41 55.83V58.17C41 58.6284 41.3716 59 41.83 59H58.17C58.6284 59 59 58.6284 59 58.17V55.83C59 55.3716 58.6284 55 58.17 55Z" fill="#03bb78"></path><path d="M34.9995 55.83V58.17C34.9995 58.3901 34.9121 58.6012 34.7564 58.7569C34.6008 58.9126 34.3896 59 34.1695 59H17.8295C17.6877 59.0023 17.5478 58.9664 17.4247 58.896C17.3015 58.8256 17.1995 58.7234 17.1295 58.6V58.45C17.1144 58.364 17.1144 58.276 17.1295 58.19V56.55C18.1327 56.2045 19.0645 55.6793 19.8795 55H34.1695C34.3896 55 34.6008 55.0874 34.7564 55.2431C34.9121 55.3988 34.9995 55.6099 34.9995 55.83Z" fill="#03bb78"></path><path d="M55.17 49H38.83C38.3716 49 38 49.3716 38 49.83V52.17C38 52.6284 38.3716 53 38.83 53H55.17C55.6284 53 56 52.6284 56 52.17V49.83C56 49.3716 55.6284 49 55.17 49Z" fill="#03bb78"></path><path d="M36.9997 49.83V52.17C36.9997 52.3901 36.9123 52.6012 36.7566 52.7569C36.601 52.9126 36.3899 53 36.1697 53H21.7197C21.9705 52.6387 22.1912 52.2574 22.3797 51.86C22.809 50.9592 23.0829 49.9922 23.1897 49H36.1897C36.4064 49.0052 36.6124 49.095 36.7637 49.2501C36.9151 49.4052 36.9998 49.6133 36.9997 49.83Z" fill="#03bb78"></path><path d="M58.17 43H41.83C41.3716 43 41 43.3716 41 43.83V46.17C41 46.6284 41.3716 47 41.83 47H58.17C58.6284 47 59 46.6284 59 46.17V43.83C59 43.3716 58.6284 43 58.17 43Z" fill="#03bb78"></path><path d="M57.17 37H40.83C40.3716 37 40 37.3716 40 37.83V40.17C40 40.6284 40.3716 41 40.83 41H57.17C57.6284 41 58 40.6284 58 40.17V37.83C58 37.3716 57.6284 37 57.17 37Z" fill="#03bb78"></path><path d="M30.17 31H13.83C13.3716 31 13 31.3716 13 31.83V34.17C13 34.6284 13.3716 35 13.83 35H30.17C30.6284 35 31 34.6284 31 34.17V31.83C31 31.3716 30.6284 31 30.17 31Z" fill="#03bb78"></path><path d="M32.17 25H15.83C15.3716 25 15 25.3716 15 25.83V28.17C15 28.6284 15.3716 29 15.83 29H32.17C32.6284 29 33 28.6284 33 28.17V25.83C33 25.3716 32.6284 25 32.17 25Z" fill="#03bb78"></path><path d="M34 37.83V40.17C34 40.3901 33.9126 40.6012 33.7569 40.7569C33.6013 40.9126 33.3901 41 33.17 41H19.91C18.7723 40.0852 17.4313 39.4575 16 39.17V37.83C15.9994 37.7102 16.025 37.5917 16.0751 37.4828C16.1252 37.374 16.1986 37.2774 16.29 37.2C16.4404 37.071 16.6319 37.0001 16.83 37H33.17C33.3901 37 33.6013 37.0874 33.7569 37.2431C33.9126 37.3988 34 37.6099 34 37.83Z" fill="#03bb78"></path><path d="M23.1497 46.73C23.0755 46.1393 22.9346 45.5589 22.7297 45C22.4244 44.1196 21.9823 43.2928 21.4197 42.55C20.6588 41.5406 19.6939 40.7028 18.5878 40.0911C17.4816 39.4795 16.259 39.1077 14.9997 39H14.2897C12.4294 39.0011 10.6152 39.5786 9.09662 40.653C7.57805 41.7275 6.42973 43.2461 5.80965 45C5.61003 45.5502 5.46924 46.1201 5.38965 46.7V47C5.33971 47.3309 5.3163 47.6653 5.31965 48C5.31874 48.3342 5.33878 48.6682 5.37965 49C5.48518 49.9956 5.75907 50.9661 6.18965 51.87C6.91614 53.3954 8.05735 54.6856 9.48274 55.5928C10.9081 56.5 12.5601 56.9877 14.2497 57C14.7694 56.9989 15.2881 56.9521 15.7997 56.86C18.013 56.4669 20.0015 55.266 21.3797 53.49L21.5297 53.29C22.4477 52.0292 23.02 50.5503 23.1897 49C23.2299 48.6682 23.2499 48.3342 23.2497 48C23.254 47.5745 23.2205 47.1495 23.1497 46.73ZM13.4997 47H14.4997C15.1627 46.9337 15.8249 47.1335 16.3406 47.5554C16.8564 47.9774 17.1833 48.5869 17.2497 49.25C17.316 49.913 17.1162 50.5752 16.6942 51.091C16.2722 51.6067 15.6627 51.9337 14.9997 52V53C14.9997 53.2652 14.8943 53.5195 14.7068 53.7071C14.5192 53.8946 14.2649 54 13.9997 54C13.7344 54 13.4801 53.8946 13.2925 53.7071C13.105 53.5195 12.9997 53.2652 12.9997 53V52H11.9997C11.7344 52 11.4801 51.8946 11.2925 51.7071C11.105 51.5195 10.9997 51.2652 10.9997 51C10.9997 50.7348 11.105 50.4804 11.2925 50.2929C11.4801 50.1053 11.7344 50 11.9997 50H14.4997C14.6323 50 14.7594 49.9473 14.8532 49.8535C14.947 49.7598 14.9997 49.6326 14.9997 49.5C14.9997 49.3674 14.947 49.2402 14.8532 49.1464C14.7594 49.0526 14.6323 49 14.4997 49H13.4997C12.8366 49.0663 12.1744 48.8665 11.6587 48.4445C11.1429 48.0226 10.816 47.413 10.7497 46.75C10.6833 46.0869 10.8831 45.4247 11.3051 44.909C11.7271 44.3933 12.3366 44.0663 12.9997 44V43C12.9997 42.7348 13.105 42.4804 13.2925 42.2929C13.4801 42.1053 13.7344 42 13.9997 42C14.2649 42 14.5192 42.1053 14.7068 42.2929C14.8943 42.4804 14.9997 42.7348 14.9997 43V44H15.9997C16.2649 44 16.5192 44.1053 16.7068 44.2929C16.8943 44.4804 16.9997 44.7348 16.9997 45C16.9997 45.2652 16.8943 45.5195 16.7068 45.7071C16.5192 45.8946 16.2649 46 15.9997 46H13.4997C13.367 46 13.2399 46.0526 13.1461 46.1464C13.0523 46.2402 12.9997 46.3674 12.9997 46.5C12.9997 46.6326 13.0523 46.7598 13.1461 46.8535C13.2399 46.9473 13.367 47 13.4997 47ZM32.8997 12.73C32.8255 12.1393 32.6846 11.5589 32.4797 11C31.8654 9.23505 30.7171 7.70508 29.1939 6.6224C27.6708 5.53971 25.8484 4.95801 23.9797 4.95801C22.1109 4.95801 20.2885 5.53971 18.7654 6.6224C17.2422 7.70508 16.0939 9.23505 15.4797 11C15.28 11.5502 15.1392 12.1201 15.0597 12.7C15.0597 12.7 15.0597 12.81 15.0597 12.82V13C15.0131 13.3312 14.993 13.6656 14.9997 14C14.9987 14.3342 15.0188 14.6682 15.0597 15C15.1652 15.9956 15.4391 16.9661 15.8697 17.87C16.5999 19.4079 17.7514 20.7071 19.1905 21.6169C20.6296 22.5266 22.2971 23.0095 23.9997 23.0095C25.7022 23.0095 27.3697 22.5266 28.8088 21.6169C30.2479 20.7071 31.3994 19.4079 32.1297 17.87C32.56 16.966 32.8339 15.9956 32.9396 15C32.9799 14.6682 32.9999 14.3342 32.9997 14C33.004 13.5745 32.9705 13.1495 32.8997 12.73ZM23.4997 13H24.4997C25.1627 12.9337 25.8249 13.1335 26.3406 13.5554C26.8564 13.9774 27.1833 14.5869 27.2497 15.25C27.316 15.913 27.1162 16.5752 26.6942 17.091C26.2722 17.6067 25.6627 17.9337 24.9997 18V19C24.9997 19.2652 24.8943 19.5195 24.7068 19.7071C24.5192 19.8946 24.2649 20 23.9997 20C23.7344 20 23.4801 19.8946 23.2925 19.7071C23.105 19.5195 22.9997 19.2652 22.9997 19V18H21.9997C21.7344 18 21.4801 17.8946 21.2925 17.7071C21.105 17.5195 20.9997 17.2652 20.9997 17C20.9997 16.7348 21.105 16.4804 21.2925 16.2929C21.4801 16.1053 21.7344 16 21.9997 16H24.4997C24.6323 16 24.7594 15.9473 24.8532 15.8535C24.947 15.7598 24.9997 15.6326 24.9997 15.5C24.9997 15.3674 24.947 15.2402 24.8532 15.1464C24.7594 15.0526 24.6323 15 24.4997 15H23.4997C22.8797 15.0006 22.2816 14.7708 21.8215 14.3553C21.3614 13.9397 21.0721 13.3681 21.0098 12.7512C20.9475 12.1344 21.1166 11.5164 21.4843 11.0172C21.852 10.5181 22.3921 10.1733 22.9997 10.05V8.99997C22.9997 8.73475 23.105 8.4804 23.2925 8.29286C23.4801 8.10533 23.7344 7.99997 23.9997 7.99997C24.2649 7.99997 24.5192 8.10533 24.7068 8.29286C24.8943 8.4804 24.9997 8.73475 24.9997 8.99997V9.99997H25.9997C26.2649 9.99997 26.5192 10.1053 26.7068 10.2929C26.8943 10.4804 26.9997 10.7348 26.9997 11C26.9997 11.2652 26.8943 11.5195 26.7068 11.7071C26.5192 11.8946 26.2649 12 25.9997 12H23.4997C23.367 12 23.2399 12.0526 23.1461 12.1464C23.0523 12.2402 22.9997 12.3674 22.9997 12.5C22.9997 12.6326 23.0523 12.7598 23.1461 12.8535C23.2399 12.9473 23.367 13 23.4997 13ZM58.8997 24.73C58.8255 24.1393 58.6846 23.5589 58.4796 23C57.8654 21.235 56.7171 19.7051 55.1939 18.6224C53.6708 17.5397 51.8484 16.958 49.9796 16.958C48.1109 16.958 46.2885 17.5397 44.7654 18.6224C43.2422 19.7051 42.0938 21.235 41.4796 23C41.28 23.5502 41.1392 24.1201 41.0597 24.7C41.0597 24.7 41.0597 24.81 41.0597 24.82V25C41.0131 25.3312 40.993 25.6656 40.9996 26C40.9987 26.3342 41.0188 26.6682 41.0597 27C41.1652 27.9956 41.4391 28.9661 41.8696 29.87C42.5999 31.4079 43.7514 32.7071 45.1905 33.6169C46.6296 34.5266 48.2971 35.0095 49.9996 35.0095C51.7022 35.0095 53.3697 34.5266 54.8088 33.6169C56.2479 32.7071 57.3994 31.4079 58.1297 29.87C58.56 28.966 58.8339 27.9956 58.9396 27C58.9799 26.6682 58.9999 26.3342 58.9996 26C59.004 25.5745 58.9705 25.1495 58.8997 24.73ZM49.4996 25H50.4996C51.1627 24.9337 51.8249 25.1335 52.3406 25.5554C52.8564 25.9774 53.1833 26.5869 53.2496 27.25C53.316 27.913 53.1161 28.5752 52.6942 29.091C52.2722 29.6067 51.6627 29.9337 50.9996 30V31C50.9996 31.2652 50.8943 31.5195 50.7068 31.7071C50.5192 31.8946 50.2649 32 49.9996 32C49.7344 32 49.4801 31.8946 49.2925 31.7071C49.105 31.5195 48.9996 31.2652 48.9996 31V30H47.9996C47.7344 30 47.4801 29.8946 47.2925 29.7071C47.105 29.5195 46.9996 29.2652 46.9996 29C46.9996 28.7348 47.105 28.4804 47.2925 28.2929C47.4801 28.1053 47.7344 28 47.9996 28H50.4996C50.6323 28 50.7594 27.9473 50.8532 27.8535C50.947 27.7598 50.9996 27.6326 50.9996 27.5C50.9996 27.3674 50.947 27.2402 50.8532 27.1464C50.7594 27.0526 50.6323 27 50.4996 27H49.4996C48.8797 27.0006 48.2816 26.7708 47.8215 26.3553C47.3614 25.9397 47.0721 25.3681 47.0098 24.7512C46.9475 24.1344 47.1166 23.5164 47.4843 23.0172C47.852 22.5181 48.3921 22.1733 48.9996 22.05V21C48.9996 20.7348 49.105 20.4804 49.2925 20.2929C49.4801 20.1053 49.7344 20 49.9996 20C50.2649 20 50.5192 20.1053 50.7068 20.2929C50.8943 20.4804 50.9996 20.7348 50.9996 21V22H51.9996C52.2649 22 52.5192 22.1053 52.7068 22.2929C52.8943 22.4804 52.9996 22.7348 52.9996 23C52.9996 23.2652 52.8943 23.5195 52.7068 23.7071C52.5192 23.8946 52.2649 24 51.9996 24H49.4996C49.367 24 49.2399 24.0526 49.1461 24.1464C49.0523 24.2402 48.9996 24.3674 48.9996 24.5C48.9996 24.6326 49.0523 24.7598 49.1461 24.8535C49.2399 24.9473 49.367 25 49.4996 25Z" fill="#03bb78"></path><path d="M59.6905 41.4499C59.896 41.0546 60.0023 40.6154 60.0005 40.1699V37.8299C60.0005 37.0793 59.7023 36.3595 59.1716 35.8288C58.6409 35.298 57.921 34.9999 57.1705 34.9999H56.3005C57.5839 34.1121 58.6615 32.9589 59.4603 31.6183C60.2591 30.2777 60.7605 28.7811 60.9305 27.2299C60.9796 26.8218 61.0029 26.4109 61.0005 25.9999C61.0042 25.4741 60.9641 24.949 60.8805 24.4299C60.7839 23.7173 60.613 23.0168 60.3705 22.3399C59.6098 20.1993 58.205 18.3467 56.3491 17.0366C54.4932 15.7265 52.2772 15.0232 50.0055 15.0232C47.7337 15.0232 45.5177 15.7265 43.6618 17.0366C41.8059 18.3467 40.4012 20.1993 39.6405 22.3399C39.3844 23.0484 39.2067 23.7827 39.1105 24.5299C39.1056 24.6165 39.1056 24.7033 39.1105 24.7899C39.0101 25.6035 39.0101 26.4263 39.1105 27.2399C39.2765 28.7863 39.7721 30.2791 40.5639 31.6177C41.3556 32.9563 42.4252 34.1096 43.7005 34.9999H40.8305C40.0799 34.9999 39.3601 35.298 38.8294 35.8288C38.2986 36.3595 38.0005 37.0793 38.0005 37.8299V40.1699C37.9998 40.645 38.1196 41.1125 38.3487 41.5287C38.5778 41.9449 38.9087 42.2963 39.3105 42.5499C39.105 42.9451 38.9986 43.3844 39.0005 43.8299V46.1699C38.9972 46.4519 39.0412 46.7324 39.1305 46.9999H38.8305C38.1588 47.0006 37.5096 47.2418 37.0005 47.6799C36.4913 47.2418 35.8421 47.0006 35.1705 46.9999H34.8705C34.9598 46.7324 35.0037 46.4519 35.0005 46.1699V43.8299C35.0023 43.3844 34.896 42.9451 34.6905 42.5499C35.0922 42.2963 35.4231 41.9449 35.6522 41.5287C35.8813 41.1125 36.0011 40.645 36.0005 40.1699V37.8299C36.0005 37.0793 35.7023 36.3595 35.1716 35.8288C34.6409 35.298 33.921 34.9999 33.1705 34.9999H32.8705C32.9598 34.7324 33.0037 34.4519 33.0005 34.1699V31.8299C33.0035 31.516 32.9493 31.2043 32.8405 30.9099C33.4566 30.7634 34.0052 30.4131 34.3972 29.9157C34.7893 29.4184 35.0019 28.8032 35.0005 28.1699V25.8299C35.0005 25.0793 34.7023 24.3595 34.1716 23.8288C33.6409 23.298 32.921 22.9999 32.1705 22.9999H30.3005C31.5839 22.1121 32.6615 20.9589 33.4603 19.6183C34.2591 18.2777 34.7605 16.7811 34.9305 15.2299C34.9796 14.8218 35.0029 14.4109 35.0005 13.9999C35.0042 13.4741 34.9641 12.949 34.8805 12.4299C34.7839 11.7173 34.613 11.0168 34.3705 10.3399C33.6098 8.1993 32.205 6.34673 30.3491 5.03664C28.4932 3.72654 26.2772 3.02319 24.0055 3.02319C21.7337 3.02319 19.5177 3.72654 17.6618 5.03664C15.8059 6.34673 14.4012 8.1993 13.6405 10.3399C13.3844 11.0484 13.2067 11.7827 13.1105 12.5299C13.1056 12.6165 13.1056 12.7033 13.1105 12.7899C13.0101 13.6035 13.0101 14.4263 13.1105 15.2399C13.2765 16.7863 13.7721 18.2791 14.5638 19.6177C15.3556 20.9563 16.4252 22.1096 17.7005 22.9999H15.8305C15.0799 22.9999 14.3601 23.298 13.8294 23.8288C13.2986 24.3595 13.0005 25.0793 13.0005 25.8299V28.1699C12.9974 28.4837 13.0516 28.7955 13.1605 29.0899C12.5443 29.2364 11.9958 29.5867 11.6037 30.084C11.2116 30.5814 10.9991 31.1966 11.0005 31.8299V34.1699C11.0005 34.9204 11.2986 35.6403 11.8294 36.171C12.3601 36.7017 13.0799 36.9999 13.8305 36.9999H14.1305C11.8797 37.0258 9.69111 37.7415 7.85998 39.0504C6.02884 40.3594 4.64335 42.1986 3.89047 44.3199C3.6344 45.0283 3.45668 45.7627 3.36047 46.5099C3.35557 46.5965 3.35557 46.6833 3.36047 46.7699C3.26005 47.5835 3.26005 48.4063 3.36047 49.2199C3.49508 50.4344 3.83313 51.6176 4.36047 52.7199C5.25557 54.5877 6.65717 56.1667 8.40567 57.2769C10.1542 58.3872 12.1793 58.9842 14.2505 58.9999C14.5403 59.0148 14.8307 59.0148 15.1205 58.9999C15.2969 59.5804 15.6559 60.0886 16.1441 60.4489C16.6323 60.8092 17.2237 61.0024 17.8305 60.9999H34.1705C34.921 60.9999 35.6409 60.7017 36.1716 60.171C36.7023 59.6403 37.0005 58.9204 37.0005 58.1699V55.8299C37.0023 55.3844 36.896 54.9451 36.6905 54.5499C36.8002 54.4822 36.9039 54.4052 37.0005 54.3199C37.5096 54.758 38.1588 54.9992 38.8305 54.9999H39.1305C39.0412 55.2674 38.9972 55.5479 39.0005 55.8299V58.1699C39.0005 58.5415 39.0737 58.9095 39.2159 59.2529C39.3581 59.5962 39.5666 59.9082 39.8294 60.171C40.0922 60.4338 40.4041 60.6422 40.7475 60.7845C41.0908 60.9267 41.4588 60.9999 41.8305 60.9999H58.1705C58.921 60.9999 59.6409 60.7017 60.1716 60.171C60.7023 59.6403 61.0005 58.9204 61.0005 58.1699V55.8299C61.0005 55.0793 60.7023 54.3595 60.1716 53.8288C59.6409 53.298 58.921 52.9999 58.1705 52.9999H57.8705C57.9598 52.7324 58.0037 52.4519 58.0005 52.1699V49.8299C58.0037 49.5479 57.9598 49.2674 57.8705 48.9999H58.1705C58.921 48.9999 59.6409 48.7017 60.1716 48.171C60.7023 47.6403 61.0005 46.9204 61.0005 46.1699V43.8299C61.0011 43.3548 60.8813 42.8873 60.6522 42.4711C60.4231 42.0548 60.0922 41.7035 59.6905 41.4499ZM33.1705 36.9999C33.3906 36.9999 33.6017 37.0873 33.7574 37.243C33.913 37.3986 34.0005 37.6098 34.0005 37.8299V40.1699C34.0005 40.39 33.913 40.6011 33.7574 40.7568C33.6017 40.9124 33.3906 40.9999 33.1705 40.9999H22.7305C21.1013 39.0108 18.8193 37.6643 16.2905 37.1999C16.4408 37.0709 16.6324 37 16.8305 36.9999H33.1705ZM33.0005 43.8299V46.1699C33.0005 46.39 32.913 46.6011 32.7574 46.7568C32.6017 46.9124 32.3906 46.9999 32.1705 46.9999H25.1705C25.1582 46.8087 25.1349 46.6184 25.1005 46.4299C25.0039 45.7173 24.833 45.0168 24.5905 44.3399C24.4412 43.8814 24.2608 43.4337 24.0505 42.9999H32.1705C32.3906 42.9999 32.6017 43.0873 32.7574 43.243C32.913 43.3986 33.0005 43.6098 33.0005 43.8299ZM15.8705 17.8299C15.4442 16.9384 15.1704 15.9819 15.0605 14.9999C15.0196 14.6681 14.9996 14.3341 15.0005 13.9999C14.9971 13.6652 15.0205 13.3308 15.0705 12.9999V12.6999C15.1501 12.12 15.2908 11.5501 15.4905 10.9999C16.1047 9.23496 17.253 7.705 18.7762 6.62231C20.2993 5.53963 22.1217 4.95792 23.9905 4.95792C25.8592 4.95792 27.6816 5.53963 29.2048 6.62231C30.7279 7.705 31.8763 9.23496 32.4905 10.9999C32.6947 11.5556 32.8356 12.1326 32.9105 12.7199C32.9786 13.143 33.0087 13.5714 33.0005 13.9999C33.0007 14.3341 32.9807 14.6681 32.9405 14.9999C32.8336 15.9921 32.5598 16.959 32.1305 17.8599C31.4002 19.3978 30.2487 20.6971 28.8096 21.6068C27.3706 22.5165 25.703 22.9994 24.0005 22.9994C22.298 22.9994 20.6304 22.5165 19.1913 21.6068C17.7523 20.6971 16.6007 19.3978 15.8705 17.8599V17.8299ZM15.0005 25.8299C15.0005 25.6098 15.0879 25.3986 15.2436 25.243C15.3992 25.0873 15.6103 24.9999 15.8305 24.9999H32.1705C32.3906 24.9999 32.6017 25.0873 32.7574 25.243C32.913 25.3986 33.0005 25.6098 33.0005 25.8299V28.1699C33.0005 28.39 32.913 28.6011 32.7574 28.7568C32.6017 28.9124 32.3906 28.9999 32.1705 28.9999H15.8305C15.6103 28.9999 15.3992 28.9124 15.2436 28.7568C15.0879 28.6011 15.0005 28.39 15.0005 28.1699V25.8299ZM13.8305 34.9999C13.6103 34.9999 13.3992 34.9124 13.2436 34.7568C13.0879 34.6011 13.0005 34.39 13.0005 34.1699V31.8299C13.0005 31.6098 13.0879 31.3986 13.2436 31.243C13.3992 31.0873 13.6103 30.9999 13.8305 30.9999H30.1705C30.3906 30.9999 30.6017 31.0873 30.7574 31.243C30.913 31.3986 31.0005 31.6098 31.0005 31.8299V34.1699C31.0005 34.39 30.913 34.6011 30.7574 34.7568C30.6017 34.9124 30.3906 34.9999 30.1705 34.9999H13.8305ZM15.8305 56.8599C15.3189 56.952 14.8002 56.9988 14.2805 56.9999C12.5779 56.9998 10.9103 56.5169 9.47123 55.6071C8.03216 54.6972 6.88068 53.3979 6.15047 51.8599C5.7106 50.961 5.42656 49.9939 5.31047 48.9999C5.2696 48.6681 5.24956 48.3341 5.25047 47.9999C5.24712 47.6652 5.27053 47.3308 5.32047 46.9999C5.32047 46.9999 5.32047 46.8699 5.32047 46.8199V46.6999C5.40977 46.1189 5.56062 45.549 5.77047 44.9999C6.39055 43.246 7.53887 41.7274 9.05744 40.6529C10.576 39.5785 12.3902 39.001 14.2505 38.9999H14.9605C15.3005 38.9999 15.6305 39.0799 15.9605 39.1399C17.4086 39.4302 18.7642 40.0685 19.9105 40.9999C20.4745 41.4505 20.9786 41.9714 21.4105 42.5499C21.5205 42.6899 21.6205 42.8399 21.7205 42.9899C22.1356 43.6124 22.4716 44.2842 22.7205 44.9899C22.9247 45.5456 23.0656 46.1226 23.1405 46.7099C23.1453 46.7998 23.1453 46.8899 23.1405 46.9799C23.1819 47.3116 23.2019 47.6456 23.2005 47.9799C23.2007 48.3141 23.1807 48.6481 23.1405 48.9799C23.0336 49.9721 22.7598 50.939 22.3305 51.8399C22.159 52.2425 21.955 52.6304 21.7205 52.9999C21.6666 53.1024 21.6029 53.1995 21.5305 53.2899L21.3805 53.4899C20.9478 54.0559 20.4436 54.5634 19.8805 54.9999C19.0266 55.6932 18.0495 56.219 17.0005 56.5499C16.6104 56.6885 16.2089 56.7922 15.8005 56.8599H15.8305ZM35.0005 58.1699C35.0005 58.39 34.913 58.6011 34.7574 58.7568C34.6017 58.9124 34.3906 58.9999 34.1705 58.9999H17.8305C17.6886 59.0022 17.5488 58.9663 17.4256 58.8959C17.3024 58.8255 17.2005 58.7233 17.1305 58.5999C19.3235 58.012 21.278 56.7533 22.7205 54.9999H34.1705C34.3906 54.9999 34.6017 55.0873 34.7574 55.243C34.913 55.3986 35.0005 55.6098 35.0005 55.8299V58.1699ZM36.0005 52.1699C36.0005 52.39 35.913 52.6011 35.7574 52.7568C35.6017 52.9124 35.3906 52.9999 35.1705 52.9999H24.0505L24.1905 52.7199C24.7166 51.6206 25.0546 50.4409 25.1905 49.2299C25.1959 49.1533 25.1959 49.0765 25.1905 48.9999H35.1905C35.4106 48.9999 35.6217 49.0873 35.7774 49.243C35.933 49.3986 36.0205 49.6098 36.0205 49.8299L36.0005 52.1699ZM41.8705 29.8599C41.441 28.9591 41.1671 27.9921 41.0605 26.9999C41.0196 26.6681 40.9996 26.3341 41.0005 25.9999C40.9971 25.6652 41.0205 25.3308 41.0705 24.9999V24.6999C41.1501 24.12 41.2909 23.5501 41.4905 22.9999C42.1047 21.235 43.253 19.705 44.7762 18.6223C46.2993 17.5396 48.1217 16.9579 49.9905 16.9579C51.8592 16.9579 53.6816 17.5396 55.2048 18.6223C56.7279 19.705 57.8763 21.235 58.4905 22.9999C58.6947 23.5556 58.8356 24.1326 58.9105 24.7199C58.9786 25.143 59.0087 25.5714 59.0005 25.9999C59.0007 26.3341 58.9807 26.6681 58.9405 26.9999C58.8336 27.9921 58.5598 28.959 58.1305 29.8599C57.4002 31.3978 56.2487 32.6971 54.8096 33.6068C53.3706 34.5165 51.703 34.9994 50.0005 34.9994C48.298 34.9994 46.6304 34.5165 45.1913 33.6068C43.7523 32.6971 42.6007 31.3978 41.8705 29.8599ZM40.0005 37.8599C40.0005 37.6398 40.0879 37.4286 40.2436 37.273C40.3992 37.1173 40.6103 37.0299 40.8305 37.0299H57.1705C57.3906 37.0299 57.6017 37.1173 57.7574 37.273C57.913 37.4286 58.0005 37.6398 58.0005 37.8599V40.1999C58.0005 40.42 57.913 40.6311 57.7574 40.7868C57.6017 40.9424 57.3906 41.0299 57.1705 41.0299H40.8305C40.6103 41.0299 40.3992 40.9424 40.2436 40.7868C40.0879 40.6311 40.0005 40.42 40.0005 40.1999V37.8599ZM38.8305 52.9999C38.6103 52.9999 38.3992 52.9124 38.2436 52.7568C38.0879 52.6011 38.0005 52.39 38.0005 52.1699V49.8299C38.0005 49.6098 38.0879 49.3986 38.2436 49.243C38.3992 49.0873 38.6103 48.9999 38.8305 48.9999H55.1705C55.3906 48.9999 55.6017 49.0873 55.7574 49.243C55.913 49.3986 56.0005 49.6098 56.0005 49.8299V52.1699C56.0005 52.39 55.913 52.6011 55.7574 52.7568C55.6017 52.9124 55.3906 52.9999 55.1705 52.9999H38.8305ZM58.1705 54.9999C58.3906 54.9999 58.6017 55.0873 58.7574 55.243C58.913 55.3986 59.0005 55.6098 59.0005 55.8299V58.1699C59.0005 58.39 58.913 58.6011 58.7574 58.7568C58.6017 58.9124 58.3906 58.9999 58.1705 58.9999H41.8305C41.6103 58.9999 41.3992 58.9124 41.2436 58.7568C41.0879 58.6011 41.0005 58.39 41.0005 58.1699V55.8299C41.0005 55.6098 41.0879 55.3986 41.2436 55.243C41.3992 55.0873 41.6103 54.9999 41.8305 54.9999H58.1705ZM59.0005 46.1699C59.0005 46.39 58.913 46.6011 58.7574 46.7568C58.6017 46.9124 58.3906 46.9999 58.1705 46.9999H41.8305C41.6103 46.9999 41.3992 46.9124 41.2436 46.7568C41.0879 46.6011 41.0005 46.39 41.0005 46.1699V43.8299C41.0005 43.6098 41.0879 43.3986 41.2436 43.243C41.3992 43.0873 41.6103 42.9999 41.8305 42.9999H58.1705C58.3906 42.9999 58.6017 43.0873 58.7574 43.243C58.913 43.3986 59.0005 43.6098 59.0005 43.8299V46.1699Z" fill="black"></path></svg>